<svg version="1.1" id="Layer_1" xmlns="http://www.w3.org/2000/svg" xmlns:xlink="http://www.w3.org/1999/xlink" x="0px" y="0px"
	 width="100%" viewBox="0 0 500 500" enable-background="new 0 0 500 500" xml:space="preserve">
<path fill="#000000" opacity="1.000000" stroke="none" 
	d="
M337.000000,501.000000 
	C224.666687,501.000000 112.833389,501.000000 1.000060,501.000000 
	C1.000040,334.333405 1.000040,167.666794 1.000020,1.000149 
	C167.666565,1.000100 334.333130,1.000100 500.999756,1.000050 
	C500.999847,167.666519 500.999847,334.333038 500.999939,500.999786 
	C446.500000,501.000000 392.000000,501.000000 337.000000,501.000000 
M198.500092,91.833397 
	C162.846771,91.855560 127.193428,91.902321 91.540123,91.881477 
	C83.287521,91.876648 76.724586,95.478409 71.452179,101.396828 
	C62.981327,110.905609 61.295715,122.073143 66.272934,133.483383 
	C71.537285,145.551865 81.238487,151.273926 94.820869,151.253540 
	C201.281860,151.093735 307.743195,151.181198 414.204407,151.152695 
	C434.412292,151.147278 448.463348,131.506012 442.160400,112.249908 
	C437.827301,99.011955 427.302795,91.848618 411.922729,91.843742 
	C341.115204,91.821304 270.307648,91.833572 198.500092,91.833397 
M298.500122,238.357681 
	C274.506042,238.466766 250.491638,238.009476 226.524551,238.869873 
	C208.385925,239.521027 196.179382,257.467773 200.600021,275.121643 
	C204.104797,289.117981 215.890182,297.974701 231.315613,297.987488 
	C279.146790,298.027100 326.978058,298.005707 374.809265,298.000061 
	C388.141754,297.998505 401.484039,298.288422 414.804443,297.878967 
	C435.289703,297.249237 448.720520,276.927917 441.709534,257.682617 
	C437.172638,245.228775 426.414581,238.390076 410.995209,238.372192 
	C373.830231,238.329117 336.665192,238.358078 298.500122,238.357681 
M149.499969,410.164703 
	C181.803574,410.152496 214.107864,410.262512 246.410477,410.077454 
	C263.036926,409.982178 275.095551,397.046661 275.006256,380.019867 
	C274.922516,364.052826 262.140350,351.029785 246.189972,351.008881 
	C193.238617,350.939484 140.287033,350.937958 87.335686,351.008301 
	C71.047081,351.029907 58.638779,363.917755 58.608868,380.485657 
	C58.578083,397.535828 70.802963,410.113617 87.555832,410.152893 
	C107.870445,410.200531 128.185257,410.164551 149.499969,410.164703 
M322.789032,401.708527 
	C328.605774,407.545898 335.510864,410.306610 343.872192,410.232819 
	C366.523651,410.032928 389.178131,410.193909 411.831177,410.130249 
	C415.137482,410.120941 418.577026,410.170563 421.725372,409.331635 
	C436.873047,405.295105 445.306396,391.502655 443.006195,375.028656 
	C441.129333,361.586182 428.521820,351.031006 414.072296,350.991791 
	C390.752960,350.928558 367.433075,351.035675 344.113922,350.949005 
	C330.973816,350.900116 321.694977,357.115814 316.589935,368.795166 
	C311.461151,380.528870 313.672058,391.573517 322.789032,401.708527 
M157.148544,260.640137 
	C153.025543,247.080826 144.111679,239.254974 130.185303,238.713943 
	C115.227806,238.132843 100.227432,238.607758 85.246613,238.727524 
	C83.118523,238.744522 80.913071,239.097610 78.882858,239.737518 
	C64.786346,244.180603 56.893936,257.674072 58.948215,273.609344 
	C60.614498,286.534882 73.578651,297.644287 87.892235,297.927277 
	C101.211067,298.190674 114.541313,298.152130 127.862411,297.960266 
	C147.665039,297.675049 161.003616,281.046875 157.148544,260.640137 
z"/>
<path fill="#5CE1E6" opacity="1.000000" stroke="none" 
	d="
M199.000092,91.833389 
	C270.307648,91.833572 341.115204,91.821304 411.922729,91.843742 
	C427.302795,91.848618 437.827301,99.011955 442.160400,112.249908 
	C448.463348,131.506012 434.412292,151.147278 414.204407,151.152695 
	C307.743195,151.181198 201.281860,151.093735 94.820869,151.253540 
	C81.238487,151.273926 71.537285,145.551865 66.272934,133.483383 
	C61.295715,122.073143 62.981327,110.905609 71.452179,101.396828 
	C76.724586,95.478409 83.287521,91.876648 91.540123,91.881477 
	C127.193428,91.902321 162.846771,91.855560 199.000092,91.833389 
z"/>
<path fill="#0096B1" opacity="1.000000" stroke="none" 
	d="
M299.000122,238.357834 
	C336.665192,238.358078 373.830231,238.329117 410.995209,238.372192 
	C426.414581,238.390076 437.172638,245.228775 441.709534,257.682617 
	C448.720520,276.927917 435.289703,297.249237 414.804443,297.878967 
	C401.484039,298.288422 388.141754,297.998505 374.809265,298.000061 
	C326.978058,298.005707 279.146790,298.027100 231.315613,297.987488 
	C215.890182,297.974701 204.104797,289.117981 200.600021,275.121643 
	C196.179382,257.467773 208.385925,239.521027 226.524551,238.869873 
	C250.491638,238.009476 274.506042,238.466766 299.000122,238.357834 
z"/>
<path fill="#0097B2" opacity="1.000000" stroke="none" 
	d="
M148.999969,410.164734 
	C128.185257,410.164551 107.870445,410.200531 87.555832,410.152893 
	C70.802963,410.113617 58.578083,397.535828 58.608868,380.485657 
	C58.638779,363.917755 71.047081,351.029907 87.335686,351.008301 
	C140.287033,350.937958 193.238617,350.939484 246.189972,351.008881 
	C262.140350,351.029785 274.922516,364.052826 275.006256,380.019867 
	C275.095551,397.046661 263.036926,409.982178 246.410477,410.077454 
	C214.107864,410.262512 181.803574,410.152496 148.999969,410.164734 
z"/>
<path fill="#0097B2" opacity="1.000000" stroke="none" 
	d="
M322.535095,401.452759 
	C313.672058,391.573517 311.461151,380.528870 316.589935,368.795166 
	C321.694977,357.115814 330.973816,350.900116 344.113922,350.949005 
	C367.433075,351.035675 390.752960,350.928558 414.072296,350.991791 
	C428.521820,351.031006 441.129333,361.586182 443.006195,375.028656 
	C445.306396,391.502655 436.873047,405.295105 421.725372,409.331635 
	C418.577026,410.170563 415.137482,410.120941 411.831177,410.130249 
	C389.178131,410.193909 366.523651,410.032928 343.872192,410.232819 
	C335.510864,410.306610 328.605774,407.545898 322.535095,401.452759 
z"/>
<path fill="#0096B1" opacity="1.000000" stroke="none" 
	d="
M157.260864,261.045715 
	C161.003616,281.046875 147.665039,297.675049 127.862411,297.960266 
	C114.541313,298.152130 101.211067,298.190674 87.892235,297.927277 
	C73.578651,297.644287 60.614498,286.534882 58.948215,273.609344 
	C56.893936,257.674072 64.786346,244.180603 78.882858,239.737518 
	C80.913071,239.097610 83.118523,238.744522 85.246613,238.727524 
	C100.227432,238.607758 115.227806,238.132843 130.185303,238.713943 
	C144.111679,239.254974 153.025543,247.080826 157.260864,261.045715 
z"/>
</svg>