<svg version="1.1" id="Layer_1" xmlns="http://www.w3.org/2000/svg" xmlns:xlink="http://www.w3.org/1999/xlink" x="0px" y="0px"
	 width="100%" viewBox="0 0 500 500" enable-background="new 0 0 500 500" xml:space="preserve">
<path fill="#000101" opacity="1.000000" stroke="none" 
	d="
M1.000000,197.000000 
	C1.000000,131.349609 1.000000,66.199211 1.000000,1.024407 
	C167.608780,1.024407 334.217560,1.024407 500.913177,1.024407 
	C500.913177,167.567123 500.913177,334.134308 500.913177,500.850769 
	C334.333435,500.850769 167.666733,500.850769 1.000000,500.850769 
	C1.000000,399.782318 1.000000,298.641144 1.000000,197.000000 
M189.500092,49.835609 
	C139.071808,49.835609 88.643524,49.835609 38.131180,49.835609 
	C38.131180,61.500820 38.131180,72.574348 38.131180,83.666603 
	C180.256134,83.666603 322.120392,83.666603 463.775696,83.666603 
	C463.775696,72.215370 463.775696,61.130539 463.775696,49.835609 
	C372.450439,49.835609 281.475281,49.835609 189.500092,49.835609 
M157.500000,417.969269 
	C117.730927,417.969269 77.961853,417.969269 38.135952,417.969269 
	C38.135952,429.611938 38.135952,440.689880 38.135952,451.778137 
	C180.252960,451.778137 322.104462,451.778137 463.771942,451.778137 
	C463.771942,440.317078 463.771942,429.244965 463.771942,417.969269 
	C361.778717,417.969269 260.139343,417.969269 157.500000,417.969269 
M360.500092,102.348930 
	C295.431091,102.348930 230.362091,102.348930 165.305939,102.348930 
	C165.305939,114.111984 165.305939,125.167801 165.305939,136.297318 
	C265.039154,136.297318 364.388885,136.297318 463.742188,136.297318 
	C463.742188,124.887009 463.742188,113.835434 463.742188,102.349228 
	C429.399384,102.349228 395.449738,102.349228 360.500092,102.348930 
M164.922821,378.512146 
	C164.922821,385.423737 164.922821,392.335327 164.922821,399.285767 
	C265.054138,399.285767 364.400635,399.285767 463.731842,399.285767 
	C463.731842,387.867218 463.731842,376.818481 463.731842,365.711548 
	C363.978180,365.711548 264.630371,365.711548 164.922775,365.711548 
	C164.922775,369.886719 164.922775,373.702301 164.922821,378.512146 
M182.501251,312.838715 
	C176.746704,312.838715 170.992157,312.838715 165.333069,312.838715 
	C165.333069,324.673615 165.333069,335.726288 165.333069,346.663269 
	C265.087860,346.663269 364.445892,346.663269 463.716400,346.663269 
	C463.716400,335.235718 463.716400,324.178040 463.716400,312.838623 
	C370.040924,312.838623 276.770782,312.838623 182.501251,312.838715 
M49.528534,207.360229 
	C45.762844,207.360229 41.997154,207.360229 38.285179,207.360229 
	C38.285179,219.336761 38.285179,230.549789 38.285179,241.666656 
	C123.721336,241.666656 208.739746,241.666656 293.901489,241.666656 
	C293.901489,230.226059 293.901489,219.122879 293.901489,207.360535 
	C212.626083,207.360535 131.572464,207.360535 49.528534,207.360229 
M254.499969,189.161301 
	C267.586426,189.161301 280.672852,189.161301 293.727417,189.161301 
	C293.727417,177.361694 293.727417,166.311722 293.727417,155.320953 
	C208.300537,155.320953 123.264229,155.320953 38.266136,155.320953 
	C38.266136,166.731613 38.266136,177.788528 38.266136,189.161362 
	C110.270866,189.161362 181.885422,189.161362 254.499969,189.161301 
M256.500000,259.996765 
	C248.702194,259.996765 240.904388,259.996765 232.917236,259.996765 
	C232.917236,271.660156 232.917236,282.891479 232.917236,294.261230 
	C310.092804,294.261230 386.923248,294.261230 463.713196,294.261230 
	C463.713196,282.664856 463.713196,271.451263 463.713196,259.996765 
	C394.698090,259.996765 326.099030,259.996765 256.500000,259.996765 
M210.226105,294.640930 
	C211.992325,294.538544 213.758530,294.436188 215.514572,294.334412 
	C215.514572,282.664856 215.514572,271.569885 215.514572,260.382751 
	C156.179245,260.382751 97.152046,260.382751 38.160416,260.382751 
	C38.160416,271.872681 38.160416,282.973846 38.160416,294.640717 
	C95.394333,294.640717 152.336716,294.640717 210.226105,294.640930 
M433.500122,207.360214 
	C392.761383,207.360214 352.022644,207.360214 311.245117,207.360214 
	C311.245117,219.280441 311.245117,230.383957 311.245117,241.724915 
	C362.207214,241.724915 412.919891,241.724915 463.762390,241.724915 
	C463.762390,230.238419 463.762390,219.033676 463.762390,207.360519 
	C453.768372,207.360519 444.134277,207.360519 433.500122,207.360214 
M464.122070,175.492554 
	C464.122070,168.744659 464.122070,161.996750 464.122070,155.328339 
	C412.667114,155.328339 361.990936,155.328339 311.367310,155.328339 
	C311.367310,166.747437 311.367310,177.805634 311.367310,188.781219 
	C362.411133,188.781219 413.088654,188.781219 464.122101,188.781219 
	C464.122101,184.432999 464.122101,180.461288 464.122070,175.492554 
M98.500107,102.348930 
	C78.406700,102.348930 58.313301,102.348930 38.092728,102.348930 
	C38.092728,114.092278 38.092728,125.043716 38.092728,136.322540 
	C74.726723,136.322540 111.128517,136.322540 147.701782,136.322540 
	C147.701782,124.978844 147.701782,113.918449 147.701782,102.349228 
	C131.429337,102.349228 115.464729,102.349228 98.500107,102.348930 
M148.004059,397.114746 
	C148.004059,386.692261 148.004059,376.269745 148.004059,365.681091 
	C111.028717,365.681091 74.671036,365.681091 38.214073,365.681091 
	C38.214073,377.063904 38.214073,388.111053 38.214073,399.141846 
	C39.019966,399.355103 39.491764,399.588898 39.963753,399.589294 
	C74.910957,399.619141 109.858208,399.644531 144.805252,399.575653 
	C145.856369,399.573608 146.905518,398.569611 148.004059,397.114746 
M100.500031,312.838715 
	C79.765739,312.838715 59.031452,312.838715 38.224319,312.838715 
	C38.224319,324.570770 38.224319,335.612610 38.224319,346.707581 
	C74.921600,346.707581 111.269127,346.707581 147.672836,346.707581 
	C147.672836,335.330780 147.672836,324.277557 147.672836,312.838623 
	C132.064041,312.838623 116.782043,312.838623 100.500031,312.838715 
z"/>
<path fill="#5CE1E6" opacity="1.000000" stroke="none" 
	d="
M190.000092,49.835609 
	C281.475281,49.835609 372.450439,49.835609 463.775696,49.835609 
	C463.775696,61.130539 463.775696,72.215370 463.775696,83.666603 
	C322.120392,83.666603 180.256134,83.666603 38.131180,83.666603 
	C38.131180,72.574348 38.131180,61.500820 38.131180,49.835609 
	C88.643524,49.835609 139.071808,49.835609 190.000092,49.835609 
z"/>
<path fill="#5CE1E6" opacity="1.000000" stroke="none" 
	d="
M158.000000,417.969269 
	C260.139343,417.969269 361.778717,417.969269 463.771942,417.969269 
	C463.771942,429.244965 463.771942,440.317078 463.771942,451.778137 
	C322.104462,451.778137 180.252960,451.778137 38.135952,451.778137 
	C38.135952,440.689880 38.135952,429.611938 38.135952,417.969269 
	C77.961853,417.969269 117.730927,417.969269 158.000000,417.969269 
z"/>
<path fill="#0093AE" opacity="1.000000" stroke="none" 
	d="
M361.000092,102.349075 
	C395.449738,102.349228 429.399384,102.349228 463.742188,102.349228 
	C463.742188,113.835434 463.742188,124.887009 463.742188,136.297318 
	C364.388885,136.297318 265.039154,136.297318 165.305939,136.297318 
	C165.305939,125.167801 165.305939,114.111984 165.305939,102.348930 
	C230.362091,102.348930 295.431091,102.348930 361.000092,102.349075 
z"/>
<path fill="#0093AE" opacity="1.000000" stroke="none" 
	d="
M164.922791,378.015015 
	C164.922775,373.702301 164.922775,369.886719 164.922775,365.711548 
	C264.630371,365.711548 363.978180,365.711548 463.731842,365.711548 
	C463.731842,376.818481 463.731842,387.867218 463.731842,399.285767 
	C364.400635,399.285767 265.054138,399.285767 164.922821,399.285767 
	C164.922821,392.335327 164.922821,385.423737 164.922791,378.015015 
z"/>
<path fill="#0097B2" opacity="1.000000" stroke="none" 
	d="
M183.000946,312.838684 
	C276.770782,312.838623 370.040924,312.838623 463.716400,312.838623 
	C463.716400,324.178040 463.716400,335.235718 463.716400,346.663269 
	C364.445892,346.663269 265.087860,346.663269 165.333069,346.663269 
	C165.333069,335.726288 165.333069,324.673615 165.333069,312.838715 
	C170.992157,312.838715 176.746704,312.838715 183.000946,312.838684 
z"/>
<path fill="#0095B0" opacity="1.000000" stroke="none" 
	d="
M50.023689,207.360382 
	C131.572464,207.360535 212.626083,207.360535 293.901489,207.360535 
	C293.901489,219.122879 293.901489,230.226059 293.901489,241.666656 
	C208.739746,241.666656 123.721336,241.666656 38.285179,241.666656 
	C38.285179,230.549789 38.285179,219.336761 38.285179,207.360229 
	C41.997154,207.360229 45.762844,207.360229 50.023689,207.360382 
z"/>
<path fill="#0097B2" opacity="1.000000" stroke="none" 
	d="
M253.999969,189.161331 
	C181.885422,189.161362 110.270866,189.161362 38.266136,189.161362 
	C38.266136,177.788528 38.266136,166.731613 38.266136,155.320953 
	C123.264229,155.320953 208.300537,155.320953 293.727417,155.320953 
	C293.727417,166.311722 293.727417,177.361694 293.727417,189.161301 
	C280.672852,189.161301 267.586426,189.161301 253.999969,189.161331 
z"/>
<path fill="#0095B0" opacity="1.000000" stroke="none" 
	d="
M257.000000,259.996765 
	C326.099030,259.996765 394.698090,259.996765 463.713196,259.996765 
	C463.713196,271.451263 463.713196,282.664856 463.713196,294.261230 
	C386.923248,294.261230 310.092804,294.261230 232.917236,294.261230 
	C232.917236,282.891479 232.917236,271.660156 232.917236,259.996765 
	C240.904388,259.996765 248.702194,259.996765 257.000000,259.996765 
z"/>
<path fill="#0095B0" opacity="1.000000" stroke="none" 
	d="
M209.752609,294.640808 
	C152.336716,294.640717 95.394333,294.640717 38.160416,294.640717 
	C38.160416,282.973846 38.160416,271.872681 38.160416,260.382751 
	C97.152046,260.382751 156.179245,260.382751 215.514572,260.382751 
	C215.514572,271.569885 215.514572,282.664856 215.514572,294.334412 
	C213.758530,294.436188 211.992325,294.538544 209.752609,294.640808 
z"/>
<path fill="#0095B0" opacity="1.000000" stroke="none" 
	d="
M434.000122,207.360367 
	C444.134277,207.360519 453.768372,207.360519 463.762390,207.360519 
	C463.762390,219.033676 463.762390,230.238419 463.762390,241.724915 
	C412.919891,241.724915 362.207214,241.724915 311.245117,241.724915 
	C311.245117,230.383957 311.245117,219.280441 311.245117,207.360214 
	C352.022644,207.360214 392.761383,207.360214 434.000122,207.360367 
z"/>
<path fill="#0097B2" opacity="1.000000" stroke="none" 
	d="
M464.122070,175.991058 
	C464.122101,180.461288 464.122101,184.432999 464.122101,188.781219 
	C413.088654,188.781219 362.411133,188.781219 311.367310,188.781219 
	C311.367310,177.805634 311.367310,166.747437 311.367310,155.328339 
	C361.990936,155.328339 412.667114,155.328339 464.122070,155.328339 
	C464.122070,161.996750 464.122070,168.744659 464.122070,175.991058 
z"/>
<path fill="#0093AE" opacity="1.000000" stroke="none" 
	d="
M99.000107,102.349075 
	C115.464729,102.349228 131.429337,102.349228 147.701782,102.349228 
	C147.701782,113.918449 147.701782,124.978844 147.701782,136.322540 
	C111.128517,136.322540 74.726723,136.322540 38.092728,136.322540 
	C38.092728,125.043716 38.092728,114.092278 38.092728,102.348930 
	C58.313301,102.348930 78.406700,102.348930 99.000107,102.349075 
z"/>
<path fill="#0093AE" opacity="1.000000" stroke="none" 
	d="
M147.979813,397.573730 
	C146.905518,398.569611 145.856369,399.573608 144.805252,399.575653 
	C109.858208,399.644531 74.910957,399.619141 39.963753,399.589294 
	C39.491764,399.588898 39.019966,399.355103 38.214073,399.141846 
	C38.214073,388.111053 38.214073,377.063904 38.214073,365.681091 
	C74.671036,365.681091 111.028717,365.681091 148.004059,365.681091 
	C148.004059,376.269745 148.004059,386.692261 147.979813,397.573730 
z"/>
<path fill="#0097B2" opacity="1.000000" stroke="none" 
	d="
M101.000031,312.838684 
	C116.782043,312.838623 132.064041,312.838623 147.672836,312.838623 
	C147.672836,324.277557 147.672836,335.330780 147.672836,346.707581 
	C111.269127,346.707581 74.921600,346.707581 38.224319,346.707581 
	C38.224319,335.612610 38.224319,324.570770 38.224319,312.838715 
	C59.031452,312.838715 79.765739,312.838715 101.000031,312.838684 
z"/>
</svg>